<svg width="42" height="40" viewBox="0 0 42 40" fill="none" xmlns="http://www.w3.org/2000/svg">
<path d="M37.4995 4.31059V31.2991C37.4997 31.477 37.4482 31.6511 37.3512 31.8002C37.2542 31.9492 37.1159 32.0669 36.9532 32.1388L20.9995 39.1989L5.04582 32.1406C4.88254 32.0685 4.74386 31.9503 4.64681 31.8005C4.54976 31.6506 4.49856 31.4758 4.49949 31.2973V4.31059H0.832825V0.643921H41.1662V4.31059H37.4995ZM8.16616 4.31059V29.5098L20.9995 35.1931L33.8328 29.5098V4.31059H8.16616ZM13.6662 11.6439H28.3328V15.3106H13.6662V11.6439ZM13.6662 18.9773H28.3328V22.6439H13.6662V18.9773Z" fill="#FF8548"/>
</svg>
