<svg width="18" height="18" viewBox="0 0 18 18" fill="none" xmlns="http://www.w3.org/2000/svg">
<path d="M17.5781 9.46094C17.5781 9.00391 17.5078 8.51172 17.4375 7.98438H9.14062V11.0078H14.0977C13.9922 11.5352 13.7812 12.0625 13.5 12.5547C13.0781 13.1875 12.5508 13.7148 11.918 14.0664C11.1094 14.5586 10.1953 14.7695 9.14062 14.7695C8.15625 14.7695 7.24219 14.5234 6.43359 14.0312C5.58984 13.5391 4.95703 12.8711 4.46484 12.0273C3.97266 11.1836 3.72656 10.2695 3.72656 9.25C3.72656 8.08984 4.04297 7.03516 4.67578 6.12109C5.23828 5.27734 6.01172 4.64453 6.99609 4.22266C7.94531 3.80078 8.92969 3.66016 9.91406 3.80078C10.9688 3.94141 11.8477 4.39844 12.6211 5.10156L14.9766 2.81641C13.3594 1.30469 11.3906 0.53125 9.14062 0.53125C7.55859 0.53125 6.11719 0.953125 4.78125 1.72656C3.44531 2.5 2.35547 3.55469 1.58203 4.89062C0.808594 6.22656 0.421875 7.70312 0.421875 9.25C0.421875 10.832 0.808594 12.2734 1.58203 13.6094C2.35547 14.9453 3.44531 16.0352 4.78125 16.8086C6.11719 17.582 7.55859 17.9688 9.14062 17.9688C10.793 17.9688 12.2695 17.6172 13.5352 16.8789C14.8008 16.1758 15.8203 15.1562 16.5234 13.8555C17.2266 12.5898 17.5781 11.1133 17.5781 9.46094Z" fill="#63657E"/>
</svg>
