<svg width="16" height="17" viewBox="0 0 16 17" fill="none" xmlns="http://www.w3.org/2000/svg">
<path d="M14.75 0.375C15.0312 0.375 15.3125 0.515625 15.5234 0.726562C15.7344 0.9375 15.875 1.21875 15.875 1.5V15C15.875 15.3164 15.7344 15.5977 15.5234 15.8086C15.3125 16.0195 15.0312 16.125 14.75 16.125H1.25C0.933594 16.125 0.652344 16.0195 0.441406 15.8086C0.230469 15.5977 0.125 15.3164 0.125 15V1.5C0.125 1.21875 0.230469 0.9375 0.441406 0.726562C0.652344 0.515625 0.933594 0.375 1.25 0.375H14.75ZM4.87109 13.875H4.90625V6.35156H2.55078V13.875H4.87109ZM3.71094 5.33203C4.0625 5.33203 4.37891 5.22656 4.66016 4.94531C4.94141 4.66406 5.08203 4.34766 5.08203 3.99609C5.08203 3.64453 4.94141 3.32812 4.66016 3.04688C4.37891 2.76562 4.0625 2.625 3.71094 2.625C3.32422 2.625 3.00781 2.76562 2.76172 3.04688C2.48047 3.32812 2.375 3.64453 2.375 3.99609C2.375 4.34766 2.48047 4.66406 2.76172 4.94531C3.00781 5.22656 3.32422 5.33203 3.71094 5.33203ZM13.625 13.875V9.76172C13.625 8.60156 13.4492 7.75781 13.1328 7.19531C12.6758 6.52734 11.9023 6.17578 10.8477 6.17578C10.2852 6.17578 9.82812 6.31641 9.40625 6.5625C9.05469 6.77344 8.77344 7.05469 8.63281 7.37109H8.59766V6.35156H6.34766V13.875H8.66797V10.1484C8.66797 9.58594 8.73828 9.12891 8.91406 8.8125C9.125 8.42578 9.51172 8.21484 10.0742 8.21484C10.6016 8.21484 10.9531 8.46094 11.1289 8.88281C11.2344 9.16406 11.3047 9.62109 11.3047 10.2188V13.875H13.625Z" fill="#63657E"/>
</svg>
