<svg width="30" height="40" viewBox="0 0 30 40" fill="none" xmlns="http://www.w3.org/2000/svg">
<path d="M29.6665 39.3114H25.9999V35.6447C25.9999 34.186 25.4204 32.7871 24.389 31.7556C23.3575 30.7242 21.9586 30.1447 20.4999 30.1447H9.49988C8.04119 30.1447 6.64224 30.7242 5.61079 31.7556C4.57934 32.7871 3.99988 34.186 3.99988 35.6447V39.3114H0.333211V35.6447C0.333211 33.2136 1.29898 30.882 3.01807 29.1629C4.73715 27.4438 7.06873 26.4781 9.49988 26.4781H20.4999C22.931 26.4781 25.2626 27.4438 26.9817 29.1629C28.7008 30.882 29.6665 33.2136 29.6665 35.6447V39.3114ZM14.9999 22.8114C13.5553 22.8114 12.1249 22.5269 10.7904 21.9741C9.45578 21.4213 8.24315 20.611 7.2217 19.5896C6.20026 18.5681 5.39 17.3555 4.8372 16.0209C4.2844 14.6863 3.99988 13.2559 3.99988 11.8114C3.99988 10.3669 4.2844 8.93647 4.8372 7.60188C5.39 6.2673 6.20026 5.05467 7.2217 4.03323C8.24315 3.01178 9.45578 2.20153 10.7904 1.64873C12.1249 1.09592 13.5553 0.811401 14.9999 0.811401C17.9173 0.811401 20.7152 1.97033 22.7781 4.03323C24.841 6.09613 25.9999 8.89402 25.9999 11.8114C25.9999 14.7288 24.841 17.5267 22.7781 19.5896C20.7152 21.6525 17.9173 22.8114 14.9999 22.8114ZM14.9999 19.1447C16.9448 19.1447 18.8101 18.3721 20.1853 16.9969C21.5606 15.6216 22.3332 13.7563 22.3332 11.8114C22.3332 9.86648 21.5606 8.00122 20.1853 6.62595C18.8101 5.25068 16.9448 4.47807 14.9999 4.47807C13.055 4.47807 11.1897 5.25068 9.81443 6.62595C8.43916 8.00122 7.66654 9.86648 7.66654 11.8114C7.66654 13.7563 8.43916 15.6216 9.81443 16.9969C11.1897 18.3721 13.055 19.1447 14.9999 19.1447Z" fill="#FFCB4B"/>
</svg>
